<?xml version="1.0" encoding="UTF-8"?>
<svg xmlns="http://www.w3.org/2000/svg" style="display: none;">
<symbol id="spinner" viewBox="0 0 512 512">
<path class="fa-secondary" style="fill:var(--fa-secondary-color,inherit);opacity:var(--fa-secondary-opacity,.4);" d="M369.1 75A48 48 0 1 1 437 142.9 48 48 0 1 1 369.1 75zM416 256a48 48 0 1 1 96 0 48 48 0 1 1 -96 0zM208 464a48 48 0 1 1 96 0 48 48 0 1 1 -96 0zM75 369.1A48 48 0 1 1 142.9 437 48 48 0 1 1 75 369.1zm294.2 0A48 48 0 1 1 437 437a48 48 0 1 1 -67.9-67.9z"/><path class="fa-primary" style="fill:var(--fa-primary-color,inherit);opacity:var(--fa-primary-opacity,1);" d="M304 48a48 48 0 1 0 -96 0 48 48 0 1 0 96 0zM96 256A48 48 0 1 0 0 256a48 48 0 1 0 96 0zM75 142.9A48 48 0 1 0 142.9 75 48 48 0 1 0 75 142.9z"/>
</symbol>
<symbol id="minus" viewBox="0 0 448 512">
<path class="fa-secondary" style="fill:var(--fa-secondary-color,inherit);opacity:var(--fa-secondary-opacity,.4);" d="M432 256c0 17.7-14.3 32-32 32L48 288c-17.7 0-32-14.3-32-32s14.3-32 32-32l352 0c17.7 0 32 14.3 32 32z"/><path class="fa-primary" style="fill:var(--fa-primary-color,inherit);opacity:var(--fa-primary-opacity,1);" d=""/>
</symbol>
<symbol id="triangle-exclamation" viewBox="0 0 512 512">
<path class="fa-secondary" style="fill:var(--fa-secondary-color,inherit);opacity:var(--fa-secondary-opacity,.4);" d="M256 32c14.2 0 27.3 7.5 34.5 19.8l216 368c7.3 12.4 7.3 27.7 .2 40.1S486.3 480 472 480H40c-14.3 0-27.6-7.7-34.7-20.1s-7-27.8 .2-40.1l216-368C228.7 39.5 241.8 32 256 32zm0 128c-13.3 0-24 10.7-24 24V296c0 13.3 10.7 24 24 24s24-10.7 24-24V184c0-13.3-10.7-24-24-24zm32 224a32 32 0 1 0 -64 0 32 32 0 1 0 64 0z"/><path class="fa-primary" style="fill:var(--fa-primary-color,inherit);opacity:var(--fa-primary-opacity,1);" d="M280 184c0-13.3-10.7-24-24-24s-24 10.7-24 24V296c0 13.3 10.7 24 24 24s24-10.7 24-24V184zM256 416a32 32 0 1 0 0-64 32 32 0 1 0 0 64z"/>
</symbol>
<symbol id="clock-rotate-left" viewBox="0 0 512 512">
<path class="fa-secondary" style="fill:var(--fa-secondary-color,inherit);opacity:var(--fa-secondary-opacity,.4);" d="M120.2 120.2C155 85.5 203 64 256 64c106 0 192 86 192 192s-86 192-192 192c-40.8 0-78.6-12.7-109.7-34.4c-14.5-10.1-34.4-6.6-44.6 7.9s-6.6 34.4 7.9 44.6C151.2 495 201.7 512 256 512c141.4 0 256-114.6 256-256S397.4 0 256 0C185.3 0 121.3 28.7 75 75L41 41C25.9 25.9 0 36.6 0 57.9V168c0 13.3 10.7 24 24 24H134.1c21.4 0 32.1-25.9 17-41l-30.8-30.8z"/><path class="fa-primary" style="fill:var(--fa-primary-color,inherit);opacity:var(--fa-primary-opacity,1);" d="M256 128c13.3 0 24 10.7 24 24v94.1l65 65c9.4 9.4 9.4 24.6 0 33.9s-24.6 9.4-33.9 0l-72-72c-4.5-4.5-7-10.6-7-17V152c0-13.3 10.7-24 24-24z"/>
</symbol>
<symbol id="circle-exclamation" viewBox="0 0 512 512">
<path class="fa-secondary" style="fill:var(--fa-secondary-color,inherit);opacity:var(--fa-secondary-opacity,.4);" d="M256 512A256 256 0 1 0 256 0a256 256 0 1 0 0 512zm0-384c13.3 0 24 10.7 24 24V264c0 13.3-10.7 24-24 24s-24-10.7-24-24V152c0-13.3 10.7-24 24-24zM224 352a32 32 0 1 1 64 0 32 32 0 1 1 -64 0z"/><path class="fa-primary" style="fill:var(--fa-primary-color,inherit);opacity:var(--fa-primary-opacity,1);" d="M280 152c0-13.3-10.7-24-24-24s-24 10.7-24 24V264c0 13.3 10.7 24 24 24s24-10.7 24-24V152zM256 384a32 32 0 1 0 0-64 32 32 0 1 0 0 64z"/>
</symbol>
<symbol id="circle-check" viewBox="0 0 512 512">
<path class="fa-secondary" style="fill:var(--fa-secondary-color,inherit);opacity:var(--fa-secondary-opacity,.4);" d="M256 512A256 256 0 1 0 256 0a256 256 0 1 0 0 512zM369 209L241 337c-9.4 9.4-24.6 9.4-33.9 0l-64-64c-9.4-9.4-9.4-24.6 0-33.9s24.6-9.4 33.9 0l47 47L335 175c9.4-9.4 24.6-9.4 33.9 0s9.4 24.6 0 33.9z"/><path class="fa-primary" style="fill:var(--fa-primary-color,inherit);opacity:var(--fa-primary-opacity,1);" d="M369 175c9.4 9.4 9.4 24.6 0 33.9L241 337c-9.4 9.4-24.6 9.4-33.9 0l-64-64c-9.4-9.4-9.4-24.6 0-33.9s24.6-9.4 33.9 0l47 47L335 175c9.4-9.4 24.6-9.4 33.9 0z"/>
</symbol>
<symbol id="id-card" viewBox="0 0 576 512">
<path class="fa-secondary" style="fill:var(--fa-secondary-color,inherit);opacity:var(--fa-secondary-opacity,.4);" d="M576 128H0V416c0 35.3 28.7 64 64 64H512c35.3 0 64-28.7 64-64V128zM117.3 352H234.7c29.5 0 53.3 23.9 53.3 53.3c0 5.9-4.8 10.7-10.7 10.7H74.7c-5.9 0-10.7-4.8-10.7-10.7c0-29.5 23.9-53.3 53.3-53.3zM112 256a64 64 0 1 1 128 0 64 64 0 1 1 -128 0zm256-64H496c8.8 0 16 7.2 16 16s-7.2 16-16 16H368c-8.8 0-16-7.2-16-16s7.2-16 16-16zm0 64H496c8.8 0 16 7.2 16 16s-7.2 16-16 16H368c-8.8 0-16-7.2-16-16s7.2-16 16-16zm0 64H496c8.8 0 16 7.2 16 16s-7.2 16-16 16H368c-8.8 0-16-7.2-16-16s7.2-16 16-16z"/><path class="fa-primary" style="fill:var(--fa-primary-color,inherit);opacity:var(--fa-primary-opacity,1);" d="M64 32C28.7 32 0 60.7 0 96v32H576V96c0-35.3-28.7-64-64-64H64zM240 256a64 64 0 1 0 -128 0 64 64 0 1 0 128 0zM64 405.3c0 5.9 4.8 10.7 10.7 10.7H277.3c5.9 0 10.7-4.8 10.7-10.7c0-29.5-23.9-53.3-53.3-53.3H117.3C87.9 352 64 375.9 64 405.3z"/>
</symbol>
<symbol id="calendar" viewBox="0 0 448 512">
<path class="fa-secondary" style="fill:var(--fa-secondary-color,inherit);opacity:var(--fa-secondary-opacity,.4);" d="M0 192H448V464c0 26.5-21.5 48-48 48H48c-26.5 0-48-21.5-48-48V192z"/><path class="fa-primary" style="fill:var(--fa-primary-color,inherit);opacity:var(--fa-primary-opacity,1);" d="M160 32c0-17.7-14.3-32-32-32S96 14.3 96 32V64H48C21.5 64 0 85.5 0 112v80H448V112c0-26.5-21.5-48-48-48H352V32c0-17.7-14.3-32-32-32s-32 14.3-32 32V64H160V32z"/>
</symbol>
<symbol id="gear" viewBox="0 0 512 512">
<path class="fa-secondary" style="fill:var(--fa-secondary-color,inherit);opacity:var(--fa-secondary-opacity,.4);" d="M192 256a64 64 0 1 1 128 0 64 64 0 1 1 -128 0z"/><path class="fa-primary" style="fill:var(--fa-primary-color,inherit);opacity:var(--fa-primary-opacity,1);" d="M489.6 191.2c6.9-6.2 9.6-15.9 6.4-24.6c-4.4-11.9-9.7-23.3-15.8-34.3l-4.7-8.1c-6.6-11-14-21.4-22.1-31.2c-5.9-7.2-15.7-9.6-24.5-6.8l-55.7 17.7C359.8 93.6 345 85 329.2 78.4L316.7 21.3c-2-9.1-9-16.3-18.2-17.8C284.7 1.2 270.5 0 256 0s-28.7 1.2-42.5 3.5c-9.2 1.5-16.2 8.7-18.2 17.8L182.8 78.4c-15.8 6.5-30.6 15.1-44 25.4L83.1 86.1c-8.8-2.8-18.6-.3-24.5 6.8c-8.1 9.8-15.5 20.2-22.1 31.2l-4.7 8.1c-6.1 11-11.4 22.4-15.8 34.3c-3.2 8.7-.5 18.4 6.4 24.6l43.3 39.4C64.6 238.9 64 247.4 64 256s.6 17.1 1.7 25.4L22.4 320.8c-6.9 6.2-9.6 15.9-6.4 24.6c4.4 11.9 9.7 23.3 15.8 34.3l4.7 8.1c6.6 11 14 21.4 22.1 31.2c5.9 7.2 15.7 9.6 24.5 6.8l55.7-17.7c13.4 10.3 28.2 18.9 44 25.4l12.5 57.1c2 9.1 9 16.3 18.2 17.8c13.8 2.3 28 3.5 42.5 3.5s28.7-1.2 42.5-3.5c9.2-1.5 16.2-8.7 18.2-17.8l12.5-57.1c15.8-6.5 30.6-15.1 44-25.4l55.7 17.7c8.8 2.8 18.6 .3 24.5-6.8c8.1-9.8 15.5-20.2 22.1-31.2l4.7-8.1c6.1-11 11.3-22.4 15.8-34.3c3.2-8.7 .5-18.4-6.4-24.6l-43.3-39.4c1.1-8.3 1.7-16.8 1.7-25.4s-.6-17.1-1.7-25.4l43.3-39.4zM256 160a96 96 0 1 1 0 192 96 96 0 1 1 0-192z"/>
</symbol>
<symbol id="user" viewBox="0 0 448 512">
<path class="fa-secondary" style="fill:var(--fa-secondary-color,inherit);opacity:var(--fa-secondary-opacity,.4);" d="M96 128a128 128 0 1 1 256 0A128 128 0 1 1 96 128z"/><path class="fa-primary" style="fill:var(--fa-primary-color,inherit);opacity:var(--fa-primary-opacity,1);" d="M0 482.3C0 383.8 79.8 304 178.3 304h91.4C368.2 304 448 383.8 448 482.3c0 16.4-13.3 29.7-29.7 29.7H29.7C13.3 512 0 498.7 0 482.3z"/>
</symbol>
<symbol id="clock-nine" viewBox="0 0 512 512">
<path class="fa-secondary" style="fill:var(--fa-secondary-color,inherit);opacity:var(--fa-secondary-opacity,.4);" d="M256 512A256 256 0 1 0 256 0a256 256 0 1 0 0 512zm24-392V256c0 13.3-10.7 24-24 24H152c-13.3 0-24-10.7-24-24s10.7-24 24-24h80V120c0-13.3 10.7-24 24-24s24 10.7 24 24z"/><path class="fa-primary" style="fill:var(--fa-primary-color,inherit);opacity:var(--fa-primary-opacity,1);" d="M256 96c13.3 0 24 10.7 24 24V256c0 13.3-10.7 24-24 24H152c-13.3 0-24-10.7-24-24s10.7-24 24-24h80V120c0-13.3 10.7-24 24-24z"/>
</symbol>
<symbol id="sun-bright" viewBox="0 0 512 512" style="fill:inherit">
<path class="fa-secondary" style="fill:var(--fa-secondary-color,inherit);opacity:var(--fa-secondary-opacity,.4);" d="M280 24c0-13.3-10.7-24-24-24s-24 10.7-24 24V88c0 13.3 10.7 24 24 24s24-10.7 24-24V24zm0 400c0-13.3-10.7-24-24-24s-24 10.7-24 24v64c0 13.3 10.7 24 24 24s24-10.7 24-24V424zM512 256c0-13.3-10.7-24-24-24H424c-13.3 0-24 10.7-24 24s10.7 24 24 24h64c13.3 0 24-10.7 24-24zM88 280c13.3 0 24-10.7 24-24s-10.7-24-24-24H24c-13.3 0-24 10.7-24 24s10.7 24 24 24H88zM437 75c-9.4-9.4-24.6-9.4-33.9 0l-45.3 45.3c-9.4 9.4-9.4 24.6 0 33.9s24.6 9.4 33.9 0L437 108.9c9.4-9.4 9.4-24.6 0-33.9zM154.2 391.8c9.4-9.4 9.4-24.6 0-33.9s-24.6-9.4-33.9 0L75 403.1c-9.4 9.4-9.4 24.6 0 33.9s24.6 9.4 33.9 0l45.3-45.3zM437 437c9.4-9.4 9.4-24.6 0-33.9l-45.3-45.3c-9.4-9.4-24.6-9.4-33.9 0s-9.4 24.6 0 33.9L403.1 437c9.4 9.4 24.6 9.4 33.9 0zM120.2 154.2c9.4 9.4 24.6 9.4 33.9 0s9.4-24.6 0-33.9L108.9 75c-9.4-9.4-24.6-9.4-33.9 0s-9.4 24.6 0 33.9l45.3 45.3z"/><path class="fa-primary" style="fill:var(--fa-primary-color,inherit);opacity:var(--fa-primary-opacity,1);" d="M256 144a112 112 0 1 0 0 224 112 112 0 1 0 0-224z"/>
</symbol>
<symbol id="champagne-glasses" viewBox="0 0 640 512">
<path class="fa-secondary" style="fill:var(--fa-secondary-color,inherit);opacity:var(--fa-secondary-opacity,.4);" d="M195 1.9C179.9-3.6 163 3 155.6 17.3L76.9 170.2C48.1 226 66.5 292.5 115.3 326.8L84 413l-41-15c-16.6-6.1-35 2.5-41 19.1s2.5 35 19.1 41l71.1 25.9L163.3 510c16.6 6.1 35-2.5 41-19.1s-2.5-35-19.1-41l-41-15 31.3-86.2c59.4 5.2 116.2-33.9 130-95.2L320 188.8l14.6 64.7c13.8 61.3 70.6 100.4 130 95.2l31.3 86.2-41 15c-16.6 6.1-25.2 24.4-19.1 41s24.4 25.2 41 19.1l71.1-25.9L619 458.2c16.6-6.1 25.2-24.4 19.1-41s-24.4-25.2-41-19.1l-41 15-31.3-86.2c48.8-34.3 67.2-100.8 38.5-156.6L484.4 17.3C477.1 3 460.2-3.6 445.1 1.9L320 47.5 195 1.9zM133.7 199.6L199.6 71.7l75.1 27.4L243 239.4c-7.8 34.5-44 54.3-77.2 42.2s-48.2-50.6-32.1-82zm372.6 0c16.2 31.4 1.1 69.9-32.1 82s-69.4-7.7-77.2-42.2L365.4 99.1l75.1-27.4 65.9 127.8z"/><path class="fa-primary" style="fill:var(--fa-primary-color,inherit);opacity:var(--fa-primary-opacity,1);" d="M172.4 124.5l-38.7 75c-16.2 31.4-1.1 69.9 32.1 82s69.4-7.7 77.2-42.2L261.6 157l-89.2-32.5zm295.2 0L378.5 157 397 239.4c7.8 34.5 44 54.3 77.2 42.2s48.2-50.6 32.1-82l-38.7-75z"/>
</symbol>
<symbol id="heart" viewBox="0 0 512 512">
<path class="fa-secondary" style="fill:var(--fa-secondary-color,inherit);opacity:var(--fa-secondary-opacity,.4);" d="M47.6 300.4L228.3 469.1c7.5 7 17.4 10.9 27.7 10.9s20.2-3.9 27.7-10.9L464.4 300.4c30.4-28.3 47.6-68 47.6-109.5v-5.8c0-69.9-50.5-129.5-119.4-141C347 36.5 300.6 51.4 268 84L256 96 244 84c-32.6-32.6-79-47.5-124.6-39.9C50.5 55.6 0 115.2 0 185.1v5.8c0 41.5 17.2 81.2 47.6 109.5z"/><path class="fa-primary" style="fill:var(--fa-primary-color,inherit);opacity:var(--fa-primary-opacity,1);" d=""/>
</symbol>
<symbol id="magnifying-glass" viewBox="0 0 512 512">
<path class="fa-secondary" style="fill:var(--fa-secondary-color,inherit);opacity:var(--fa-secondary-opacity,.4);" d="M208 64a144 144 0 1 1 0 288 144 144 0 1 1 0-288zm0 352A208 208 0 1 0 208 0a208 208 0 1 0 0 416z"/><path class="fa-primary" style="fill:var(--fa-primary-color,inherit);opacity:var(--fa-primary-opacity,1);" d="M330.7 376L457.4 502.6c12.5 12.5 32.8 12.5 45.3 0s12.5-32.8 0-45.3L376 330.7C363.3 348 348 363.3 330.7 376z"/>
</symbol>
<symbol id="chevron-down" viewBox="0 0 512 512">
<path class="fa-secondary" style="fill:var(--fa-secondary-color,inherit);opacity:var(--fa-secondary-opacity,.4);" d="M278.6 406.6c-12.5 12.5-32.8 12.5-45.3 0l-192-192c-12.5-12.5-12.5-32.8 0-45.3s32.8-12.5 45.3 0L256 338.7 425.4 169.4c12.5-12.5 32.8-12.5 45.3 0s12.5 32.8 0 45.3l-192 192z"/><path class="fa-primary" style="fill:var(--fa-primary-color,inherit);opacity:var(--fa-primary-opacity,1);" d=""/>
</symbol>
<symbol id="bars" viewBox="0 0 448 512">
<path class="fa-secondary" style="fill:var(--fa-secondary-color,inherit);opacity:var(--fa-secondary-opacity,.4);" d="M0 256c0-17.7 14.3-32 32-32H416c17.7 0 32 14.3 32 32s-14.3 32-32 32H32c-17.7 0-32-14.3-32-32z"/><path class="fa-primary" style="fill:var(--fa-primary-color,inherit);opacity:var(--fa-primary-opacity,1);" d="M448 96c0-17.7-14.3-32-32-32H32C14.3 64 0 78.3 0 96s14.3 32 32 32H416c17.7 0 32-14.3 32-32zm0 320c0-17.7-14.3-32-32-32H32c-17.7 0-32 14.3-32 32s14.3 32 32 32H416c17.7 0 32-14.3 32-32z"/>
</symbol>
<symbol id="martini-glass" viewBox="0 0 512 512">
<path class="fa-secondary" style="fill:var(--fa-secondary-color,inherit);opacity:var(--fa-secondary-opacity,.4);" d="M2.4 19.8C7.4 7.8 19.1 0 32 0H480c12.9 0 24.6 7.8 29.6 19.8s2.2 25.7-6.9 34.9L288 269.3V448h64c17.7 0 32 14.3 32 32s-14.3 32-32 32H256 160c-17.7 0-32-14.3-32-32s14.3-32 32-32h64V269.3L9.4 54.6C.2 45.5-2.5 31.7 2.4 19.8zM256 210.7L402.7 64H109.3L256 210.7z"/><path class="fa-primary" style="fill:var(--fa-primary-color,inherit);opacity:var(--fa-primary-opacity,1);" d="M338.7 128L256 210.7 173.3 128H338.7z"/>
</symbol>
<symbol id="house" viewBox="0 0 576 512">
<path class="fa-secondary" style="fill:var(--fa-secondary-color,inherit);opacity:var(--fa-secondary-opacity,.4);" d="M64 270.5L64.1 472c0 22.1 17.9 40 40 40H184c22.1 0 40-17.9 40-40V383.7c0-17.7 14.3-32 32-32h64c17.7 0 32 14.3 32 32V472c0 22.1 17.9 40 40 40h80.5c22.1 0 40-18 40-40.1l-.4-201.3L288 74.5 64 270.5z"/><path class="fa-primary" style="fill:var(--fa-primary-color,inherit);opacity:var(--fa-primary-opacity,1);" d="M266.9 7.9C279-2.6 297-2.6 309.1 7.9l256 224c13.3 11.6 14.6 31.9 3 45.2s-31.9 14.6-45.2 3L288 74.5 53.1 280.1c-13.3 11.6-33.5 10.3-45.2-3s-10.3-33.5 3-45.2l256-224z"/>
</symbol>
<symbol id="arrow-left" viewBox="0 0 448 512">
<path class="fa-secondary" style="fill:var(--fa-secondary-color,inherit);opacity:var(--fa-secondary-opacity,.4);" d="M109.3 288L416 288c17.7 0 32-14.3 32-32s-14.3-32-32-32l-306.7 0-32 32 32 32z"/><path class="fa-primary" style="fill:var(--fa-primary-color,inherit);opacity:var(--fa-primary-opacity,1);" d="M9.4 278.6c-12.5-12.5-12.5-32.8 0-45.3l160-160c12.5-12.5 32.8-12.5 45.3 0s12.5 32.8 0 45.3L77.3 256 214.6 393.4c12.5 12.5 12.5 32.8 0 45.3s-32.8 12.5-45.3 0l-160-160z"/>
</symbol>
<symbol id="moon-stars" viewBox="0 0 512 512">
<path class="fa-secondary" style="fill:var(--fa-secondary-color,inherit);opacity:var(--fa-secondary-opacity,.4);" d="M284.8 99.2l11 38.6c1 3.6 4.4 6.2 8.2 6.2s7.1-2.5 8.2-6.2l11-38.6 38.6-11c3.6-1 6.2-4.4 6.2-8.2s-2.5-7.1-6.2-8.2l-38.6-11-11-38.6c-1-3.6-4.4-6.2-8.2-6.2s-7.1 2.5-8.2 6.2l-11 38.6-38.6 11c-3.6 1-6.2 4.4-6.2 8.2s2.5 7.1 6.2 8.2l38.6 11zM387.2 252.8l16.6 58c1.6 5.5 6.6 9.2 12.2 9.2s10.7-3.8 12.2-9.2l16.6-58 58-16.6c5.5-1.6 9.2-6.6 9.2-12.2s-3.8-10.7-9.2-12.2l-58-16.6-16.6-58c-1.6-5.5-6.6-9.2-12.2-9.2s-10.7 3.8-12.2 9.2l-16.6 58-58 16.6c-5.5 1.6-9.2 6.6-9.2 12.2s3.8 10.7 9.2 12.2l58 16.6z"/><path class="fa-primary" style="fill:var(--fa-primary-color,inherit);opacity:var(--fa-primary-opacity,1);" d="M191.8 128C85.8 128 0 214.1 0 320.2S85.8 512.4 191.8 512.4c52 0 99.1-20.7 133.6-54.4c5-4.9 6.3-12.5 3.1-18.7s-10.1-9.7-17-8.5c-8.1 1.4-16.5 2.2-25.1 2.2c-80.7 0-146.2-65.6-146.2-146.6c0-54.8 30-102.6 74.4-127.8c6.1-3.5 9.2-10.5 7.7-17.3s-7.3-11.9-14.3-12.5c-5.4-.5-10.8-.7-16.3-.7z"/>
</symbol>
<symbol id="x-twitter" viewBox="0 0 512 512" style="fill:var(--sl-color-neutral-900)">
<path d="M389.2 48h70.6L305.6 224.2 487 464H345L233.7 318.6 106.5 464H35.8L200.7 275.5 26.8 48H172.4L272.9 180.9 389.2 48zM364.4 421.8h39.1L151.1 88h-42L364.4 421.8z"/>
</symbol>
<symbol id="google" viewBox="0 0 488 512">
<path d="M488 261.8C488 403.3 391.1 504 248 504 110.8 504 0 393.2 0 256S110.8 8 248 8c66.8 0 123 24.5 166.3 64.9l-67.5 64.9C258.5 52.6 94.3 116.6 94.3 256c0 86.5 69.1 156.6 153.7 156.6 98.2 0 135-70.4 140.8-106.9H248v-85.3h236.1c2.3 12.7 3.9 24.9 3.9 41.4z"/>
</symbol>
</svg>